<svg
   version="1.0"
   width="100pt"
   height="100pt"
   viewBox="0 0 100 100"
   preserveAspectRatio="xMidYMid meet"
   xmlns="http://www.w3.org/2000/svg">
  <g
     transform="translate(0,100) scale(0.1,-0.1)"
     fill="#000000"
     stroke="none">
    <path
       d="M106 894 l-26 -27 0 -367 0 -367 26 -27 27 -26 367 0 367 0 27 26 26 27 0 367 0 367 -26 27 -27 26 -367 0 -367 0 -27 -26z m547 -319 c-86 -70 -136 -104 -153 -104 -17 0 -67 34 -153 104 l-129 105 282 0 282 0 -129 -105z m-303 -75 c0 -4 -29 -30 -65 -58 l-65 -53 0 111 0 111 65 -53 c36 -28 65 -54 65 -58z m430 0 l0 -111 -65 53 c-36 28 -64 55 -63 60 3 6 118 106 126 107 1 1 2 -49 2 -109z m-350 -60 c16 -13 41 -20 70 -20 29 0 54 7 70 20 14 11 28 20 31 20 4 0 46 -31 94 -70 l88 -70 -283 0 -283 0 88 70 c48 39 90 70 94 70 3 0 17 -9 31 -20z" />
  </g>
</svg>
