<svg
   version="1.0"
   width="100pt"
   height="100pt"
   viewBox="0 0 100 100"
   preserveAspectRatio="xMidYMid meet"
   xmlns="http://www.w3.org/2000/svg">
  <metadata>
    Created by potrace 1.16, written by Peter Selinger 2001-2019
  </metadata>
  <g
     transform="translate(0,100) scale(0.1,-0.1)"
     fill="#000000"
     stroke="none">
    <path
       d="M123 876 l-66 -64 5 -60 c7 -105 88 -238 242 -400 161 -169 335 -282 447 -290 l61 -5 64 66 c57 59 64 70 64 107 0 40 0 41 -100 105 -114 74 -140 79 -206 40 l-42 -25 -63 57 c-35 31 -90 85 -121 121 l-57 64 24 43 c39 65 34 91 -40 205 -64 100 -65 100 -105 100 -37 0 -48 -7 -107 -64z" />
  </g>
</svg>
